<svg viewBox="0 0 300 300" xmlns="http://www.w3.org/2000/svg">
  <!-- Blue circle with EU stars -->
  <circle cx="150" cy="150" r="130" fill="#003399" stroke="none"/>
  
  <!-- EU Stars arranged in circle -->
  <g fill="#FFCC00">
    <!-- Top star -->
    <polygon points="150,30 154,42 167,42 157,51 161,63 150,54 139,63 143,51 133,42 146,42" transform="rotate(0 150 150)"/>
    <!-- Stars going clockwise -->
    <polygon points="150,30 154,42 167,42 157,51 161,63 150,54 139,63 143,51 133,42 146,42" transform="rotate(30 150 150)"/>
    <polygon points="150,30 154,42 167,42 157,51 161,63 150,54 139,63 143,51 133,42 146,42" transform="rotate(60 150 150)"/>
    <polygon points="150,30 154,42 167,42 157,51 161,63 150,54 139,63 143,51 133,42 146,42" transform="rotate(90 150 150)"/>
    <polygon points="150,30 154,42 167,42 157,51 161,63 150,54 139,63 143,51 133,42 146,42" transform="rotate(120 150 150)"/>
    <polygon points="150,30 154,42 167,42 157,51 161,63 150,54 139,63 143,51 133,42 146,42" transform="rotate(150 150 150)"/>
    <polygon points="150,30 154,42 167,42 157,51 161,63 150,54 139,63 143,51 133,42 146,42" transform="rotate(180 150 150)"/>
    <polygon points="150,30 154,42 167,42 157,51 161,63 150,54 139,63 143,51 133,42 146,42" transform="rotate(210 150 150)"/>
    <polygon points="150,30 154,42 167,42 157,51 161,63 150,54 139,63 143,51 133,42 146,42" transform="rotate(240 150 150)"/>
    <polygon points="150,30 154,42 167,42 157,51 161,63 150,54 139,63 143,51 133,42 146,42" transform="rotate(270 150 150)"/>
    <polygon points="150,30 154,42 167,42 157,51 161,63 150,54 139,63 143,51 133,42 146,42" transform="rotate(300 150 150)"/>
    <polygon points="150,30 154,42 167,42 157,51 161,63 150,54 139,63 143,51 133,42 146,42" transform="rotate(330 150 150)"/>
  </g>
  
  <!-- DORA text in white inside circle -->
  <text x="150" y="165" font-family="Arial, sans-serif" font-size="48" font-weight="bold" fill="white" text-anchor="middle">DORA</text>
</svg>
